<?xml version="1.0" encoding="UTF-8"?>
<svg version="1.1" xmlns="http://www.w3.org/2000/svg" width="512" height="512">
<path d="M0 0 C8.80288754 6.34043826 15.4186507 14.72648904 17.58203125 25.4921875 C18.92007691 37.90936834 17.85729499 48.88109459 10.39453125 59.2421875 C3.48947254 67.43736334 -3.04169948 70.71899868 -13.41796875 74.4921875 C-13.74796875 100.8921875 -14.07796875 127.2921875 -14.41796875 154.4921875 C-10.12796875 154.4921875 -5.83796875 154.4921875 -1.41796875 154.4921875 C1.89846632 154.93162161 5.02064969 155.41337574 8.26953125 156.1171875 C9.11547852 156.29540039 9.96142578 156.47361328 10.83300781 156.65722656 C27.29743831 160.28394234 43.21413183 166.09684864 57.26953125 175.5546875 C60.25749053 177.69345121 60.25749053 177.69345121 62.76953125 177.43359375 C66.89991647 176.05106203 70.26653183 173.74645195 73.89453125 171.3671875 C75.59842906 170.27001095 77.30288301 169.17369771 79.0078125 168.078125 C79.91096191 167.49514648 80.81411133 166.91216797 81.74462891 166.31152344 C86.6614856 163.15884609 91.62394722 160.07945337 96.58203125 156.9921875 C103.76133869 152.51199138 110.93142068 148.01804565 118.08203125 143.4921875 C125.23264791 138.96632549 132.40329591 134.47330772 139.58203125 129.9921875 C146.86349272 125.44638544 154.1382013 120.89051176 161.39453125 116.3046875 C162.52266235 115.5926416 162.52266235 115.5926416 163.67358398 114.86621094 C167.76074036 112.28429323 171.83914238 109.6893346 175.91015625 107.08203125 C176.78567139 106.52346436 177.66118652 105.96489746 178.56323242 105.3894043 C180.25068577 104.31258147 181.93584992 103.23216063 183.6184082 102.14770508 C184.37081787 101.66841553 185.12322754 101.18912598 185.8984375 100.6953125 C186.56302979 100.26895508 187.22762207 99.84259766 187.91235352 99.40332031 C189.58203125 98.4921875 189.58203125 98.4921875 191.58203125 98.4921875 C191.23269531 97.46738281 190.88335937 96.44257812 190.5234375 95.38671875 C190.06364089 94.02609613 189.60401445 92.66541599 189.14453125 91.3046875 C188.79938477 90.29438477 188.79938477 90.29438477 188.44726562 89.26367188 C182.4133106 71.33670404 184.08703627 50.6973142 192.16552734 33.73291016 C201.59803654 15.15486586 217.4033666 3.89104224 236.3671875 -3.609375 C254.31247844 -9.26518098 274.98712536 -6.07193624 291.70703125 1.5546875 C309.17927068 10.83372991 321.36236095 25.66942225 327.578125 44.51171875 C332.96357746 63.3479185 331.49281063 82.93626174 322.58203125 100.4921875 C312.50549558 118.60038729 297.60542332 130.55559137 277.83203125 136.8671875 C256.67863418 142.05205722 236.1645971 138.45967559 217.58203125 127.4921875 C214.05732074 125.01689013 210.78244788 122.37195747 207.58203125 119.4921875 C206.72931641 118.72648437 206.72931641 118.72648437 205.859375 117.9453125 C204.45703125 116.6171875 204.45703125 116.6171875 202.58203125 114.4921875 C202.58203125 113.8321875 202.58203125 113.1721875 202.58203125 112.4921875 C191.17783622 118.75865644 180.2572696 125.71880692 169.31005859 132.74462891 C165.28589927 135.32248218 161.24829965 137.87876383 157.20703125 140.4296875 C156.44817627 140.90889648 155.68932129 141.38810547 154.9074707 141.88183594 C147.44796525 146.5865734 139.96612197 151.25550025 132.48486328 155.92553711 C125.58867274 160.23221636 118.70645032 164.5601326 111.83984375 168.91381836 C107.29999467 171.78850735 102.74427535 174.63586048 98.17578125 177.46484375 C97.08201172 178.14353516 95.98824219 178.82222656 94.86132812 179.52148438 C92.71370825 180.85303428 90.56404044 182.18128813 88.41210938 183.50585938 C87.43693359 184.11107422 86.46175781 184.71628906 85.45703125 185.33984375 C84.58820313 185.87617432 83.719375 186.41250488 82.82421875 186.96508789 C80.81523106 188.33336076 79.21965437 189.70705789 77.58203125 191.4921875 C78.49082031 192.31396484 78.49082031 192.31396484 79.41796875 193.15234375 C90.76914331 203.89230122 98.94476903 216.93237116 104.58203125 231.4921875 C104.58203125 232.4821875 104.58203125 233.4721875 104.58203125 234.4921875 C139.23203125 234.4921875 173.88203125 234.4921875 209.58203125 234.4921875 C210.24203125 231.1921875 210.90203125 227.8921875 211.58203125 224.4921875 C212.7521397 221.63807162 213.90997707 219.01540496 215.33203125 216.3046875 C215.69127686 215.61052734 216.05052246 214.91636719 216.4206543 214.20117188 C223.81582309 200.25835196 236.02303081 192.52075539 250.75390625 187.38671875 C266.46919764 183.71447209 283.09067068 186.01177381 296.78271484 194.50341797 C308.43258823 202.25301295 316.98813217 213.95544139 320.89453125 227.4296875 C324.09379738 243.39303605 322.52531833 260.07621181 313.41796875 273.91796875 C304.4022548 286.71251608 291.78853546 294.93217726 276.58203125 298.4921875 C273.13136575 298.90241106 269.74197936 298.97035756 266.26953125 298.9296875 C265.35381348 298.92211426 264.4380957 298.91454102 263.49462891 298.90673828 C249.50727116 298.56871253 235.70347572 293.38871099 225.58203125 283.4921875 C216.42233408 273.60788953 212.21814434 263.67275296 209.58203125 250.4921875 C176.58203125 250.4921875 143.58203125 250.4921875 109.58203125 250.4921875 C109.91203125 258.0821875 110.24203125 265.6721875 110.58203125 273.4921875 C109.13862147 279.03498717 107.82725467 283.44089573 105.58203125 288.5546875 C104.61176109 290.89482593 103.65291682 293.23974321 102.70703125 295.58984375 C102.06121094 297.08269897 102.06121094 297.08269897 101.40234375 298.60571289 C99.44109556 305.50685497 103.23996152 312.12528174 105.80078125 318.47265625 C106.4276886 320.04736443 106.4276886 320.04736443 107.06726074 321.65388489 C108.39992137 324.99808497 109.74073222 328.33894396 111.08203125 331.6796875 C112.42154476 335.03183327 113.75940654 338.38463373 115.09680176 341.73762512 C115.92875872 343.82167731 116.76228783 345.9051027 117.59753418 347.98783875 C118.16317078 349.39994377 118.16317078 349.39994377 118.74023438 350.84057617 C119.23867859 352.08250984 119.23867859 352.08250984 119.74719238 353.34953308 C121.42450532 357.65443803 122.54485964 361.89004447 121.58203125 366.4921875 C120.19506836 368.5949707 120.19506836 368.5949707 117.58203125 370.4921875 C114.17018152 371.0594385 110.79784018 370.95672698 107.34765625 370.8828125 C106.35449402 370.87715271 105.36133179 370.87149292 104.33807373 370.86566162 C101.16890066 370.84328776 98.00086205 370.79308856 94.83203125 370.7421875 C92.68230801 370.72212385 90.53256702 370.70387284 88.3828125 370.6875 C83.11549896 370.64341989 77.84884616 370.57649783 72.58203125 370.4921875 C72.43942871 371.25031738 72.29682617 372.00844727 72.14990234 372.78955078 C71.45325303 376.10507437 70.33994862 379.17442036 69.20703125 382.3671875 C66.93332192 388.89750165 65.52754517 395.32792319 64.453125 402.15234375 C63.24037339 406.80213132 61.25595862 410.1147844 57.53125 413.1796875 C42.1447264 422.10865456 25.69667532 426.05834189 8.58203125 430.4921875 C13.03703125 447.8171875 13.03703125 447.8171875 17.58203125 465.4921875 C11.97203125 466.8121875 6.36203125 468.1321875 0.58203125 469.4921875 C-1.13963392 463.52130616 -2.84919525 457.54714919 -4.54492188 451.56884766 C-5.12524358 449.52376542 -5.70726514 447.47916475 -6.29101562 445.43505859 C-7.13325565 442.47719185 -7.964445 439.51642184 -8.79296875 436.5546875 C-9.0554541 435.63864746 -9.31793945 434.72260742 -9.58837891 433.77880859 C-12.08069608 424.78741083 -12.08069608 424.78741083 -11.41796875 420.4921875 C-9.33056506 417.17983842 -7.98182557 415.71015452 -4.29614258 414.28540039 C-3.08466553 414.0146167 -1.87318848 413.74383301 -0.625 413.46484375 C0.3640332 413.23337143 0.3640332 413.23337143 1.37304688 412.9972229 C2.77750685 412.66971488 4.18387769 412.35031118 5.59188843 412.03842163 C9.23405407 411.22936341 12.86066644 410.35599319 16.48828125 409.484375 C17.1968779 409.31530136 17.90547455 409.14622772 18.63554382 408.97203064 C26.49542988 407.07304135 34.14708553 404.68666988 41.58203125 401.4921875 C42.49855469 401.12738281 43.41507813 400.76257813 44.359375 400.38671875 C47.83590671 397.42341844 48.09273182 393.84902929 48.95703125 389.4921875 C50.59785362 382.16380676 52.55339367 375.10657021 55.14453125 368.0546875 C55.42538574 367.26900391 55.70624023 366.48332031 55.99560547 365.67382812 C56.27291504 364.93455078 56.55022461 364.19527344 56.8359375 363.43359375 C57.07642822 362.79107666 57.31691895 362.14855957 57.56469727 361.48657227 C59.01822381 358.63707423 60.22249549 356.70574576 62.58203125 354.4921875 C65.67561357 354.04677142 68.2039547 353.90580746 71.28515625 354.00390625 C72.12294617 354.01098099 72.96073608 354.01805573 73.82391357 354.02534485 C76.49420272 354.05328684 79.16237833 354.11602137 81.83203125 354.1796875 C83.64450092 354.20477079 85.45700353 354.22758391 87.26953125 354.24804688 C91.70784296 354.30311246 96.14457906 354.38938083 100.58203125 354.4921875 C100.35874649 353.93144028 100.13546173 353.37069305 99.90541077 352.79295349 C97.57657812 346.94005155 95.25849899 341.08297312 92.9465332 335.22338867 C92.08305778 333.03903711 91.21687429 330.85575399 90.34790039 328.67358398 C89.09713454 325.53127643 87.85625581 322.38521668 86.6171875 319.23828125 C86.22862076 318.2682164 85.84005402 317.29815155 85.43971252 316.2986908 C82.3112145 308.30655513 80.63146299 302.74050437 83.890625 294.44921875 C84.39530478 293.11397858 84.89985799 291.77869057 85.40429688 290.44335938 C86.20613956 288.37907214 87.01446868 286.31751604 87.82739258 284.25756836 C92.32279022 272.77147564 93.35899294 263.7694746 91.58203125 251.4921875 C90.6662381 251.48860497 90.6662381 251.48860497 89.73194408 251.48495007 C74.88466711 251.425845 60.03754207 251.35032393 45.19044781 251.25647259 C38.01052504 251.21148388 30.83065222 251.17207644 23.65063477 251.14575195 C17.39340177 251.12279662 11.13632642 251.08942653 4.8792184 251.04348594 C1.56528862 251.01952 -1.74845067 251.00236668 -5.06246376 250.99457359 C-8.75973563 250.98499595 -12.45643272 250.95701206 -16.15356445 250.92456055 C-17.25551651 250.92599564 -18.35746857 250.92743073 -19.49281311 250.9289093 C-20.49822144 250.91637115 -21.50362976 250.90383301 -22.539505 250.89091492 C-23.41428655 250.88630595 -24.28906809 250.88169699 -25.19035816 250.87694836 C-27.91321628 250.40664658 -28.80723822 249.71183047 -30.41796875 247.4921875 C-30.69837077 244.96923345 -30.79739856 242.69618192 -30.75854492 240.17504883 C-30.75920204 239.06248466 -30.75920204 239.06248466 -30.75987244 237.92744446 C-30.75778258 235.47610134 -30.73444294 233.02544237 -30.7109375 230.57421875 C-30.70534223 228.87457147 -30.70107181 227.17491935 -30.69807434 225.4752655 C-30.68662009 221.00186809 -30.65714802 216.52876291 -30.6239624 212.05548096 C-30.59327396 207.49080356 -30.57957163 202.92607895 -30.56445312 198.36132812 C-30.5322788 189.40481953 -30.4810755 180.44852781 -30.41796875 171.4921875 C-47.11369431 174.17509612 -47.11369431 174.17509612 -63.35546875 178.7421875 C-64.21261475 179.03883301 -65.06976074 179.33547852 -65.95288086 179.64111328 C-78.7986372 184.24662592 -89.84620182 190.82631658 -100.41796875 199.4921875 C-101.29195312 200.20117188 -102.1659375 200.91015625 -103.06640625 201.640625 C-121.71969297 217.53896476 -130.98622188 239.1130626 -133.23318052 263.07611728 C-133.81313623 270.65892569 -133.72851349 278.27322471 -133.73681641 285.87329102 C-133.74613927 287.85607298 -133.75631134 289.83885109 -133.76725769 291.82162476 C-133.79430629 297.14895246 -133.80963157 302.47625412 -133.82268572 307.80363202 C-133.83842759 313.39165527 -133.86518191 318.97962616 -133.89071655 324.56761169 C-133.93731014 335.12452552 -133.97414761 345.68144941 -134.00738943 356.2384128 C-134.04574889 368.26763131 -134.09512237 380.29679697 -134.14537358 392.32597077 C-134.24840424 417.04800445 -134.33736696 441.77007139 -134.41796875 466.4921875 C-139.69796875 466.4921875 -144.97796875 466.4921875 -150.41796875 466.4921875 C-150.61842194 439.53567861 -150.80231842 412.57911351 -150.96455669 385.62234592 C-151.04030681 373.10452139 -151.12180045 360.58678447 -151.21704102 348.0690918 C-151.30008374 337.15264305 -151.37211996 326.23618521 -151.43120128 315.31957954 C-151.46283212 309.54480883 -151.49979629 303.77018824 -151.549963 297.99554634 C-151.59711343 292.54802288 -151.6294242 287.10060306 -151.65089035 281.65291977 C-151.66124062 279.66529144 -151.67677672 277.6776814 -151.69820976 275.69014168 C-152.03179729 243.87098887 -142.98018487 216.86383695 -120.79296875 193.46411133 C-98.93346482 171.14153798 -68.36933313 157.66691921 -37.41796875 154.4921875 C-35.10796875 154.4921875 -32.79796875 154.4921875 -30.41796875 154.4921875 C-30.74796875 128.0921875 -31.07796875 101.6921875 -31.41796875 74.4921875 C-35.04796875 73.1721875 -38.67796875 71.8521875 -42.41796875 70.4921875 C-52.3228281 63.84550557 -60.00951257 55.47746351 -62.41796875 43.4921875 C-63.75601441 31.07500666 -62.69323249 20.10328041 -55.23046875 9.7421875 C-41.5181339 -6.53211224 -18.51724205 -11.54710086 0 0 Z M-41.97265625 21.39453125 C-46.08899974 27.36879193 -46.15842301 33.4533013 -45.41796875 40.4921875 C-43.35272363 47.30191465 -38.93598702 52.19162592 -32.85546875 55.8046875 C-26.94849722 58.54043046 -20.35017098 58.56035789 -14.1171875 56.8671875 C-7.97651782 54.19629428 -3.17453566 49.07558401 -0.24609375 43.1015625 C1.66008982 37.09528598 1.64641812 29.98927192 -0.91796875 24.1796875 C-4.40259013 18.23971013 -9.85252705 13.57583067 -16.41796875 11.4921875 C-27.85241972 10.13582504 -34.59614364 12.76572696 -41.97265625 21.39453125 Z M218.58203125 26.4921875 C206.84247106 38.5479648 202.14745841 52.37019694 202.21850586 68.83959961 C202.47261962 81.14661128 206.32616168 90.61614281 213.58203125 100.4921875 C214.0821875 101.19988281 214.58234375 101.90757812 215.09765625 102.63671875 C222.72728494 112.40495548 235.43487327 119.5450316 247.58203125 121.4921875 C264.23369393 123.038967 277.89768499 120.54599292 291.58203125 110.4921875 C292.28972656 109.99203125 292.99742187 109.491875 293.7265625 108.9765625 C303.49479923 101.34693381 310.63487535 88.63934548 312.58203125 76.4921875 C314.12881075 59.84052482 311.63583667 46.17653376 301.58203125 32.4921875 C301.081875 31.78449219 300.58171875 31.07679687 300.06640625 30.34765625 C291.0706658 18.83038249 276.82964036 12.71460469 262.70703125 10.6171875 C245.67166484 9.51099488 231.18880914 15.31393969 218.58203125 26.4921875 Z M-14.41796875 171.4921875 C-14.41796875 189.6421875 -14.41796875 207.7921875 -14.41796875 226.4921875 C-10.67775284 224.99610114 -7.85843128 223.65111132 -4.5234375 221.54296875 C-3.57911865 220.94919434 -2.6347998 220.35541992 -1.66186523 219.74365234 C-0.65325439 219.10379395 0.35535645 218.46393555 1.39453125 217.8046875 C3.54544608 216.44901749 5.6964917 215.09355497 7.84765625 213.73828125 C8.95431641 213.03944824 10.06097656 212.34061523 11.20117188 211.62060547 C14.54503351 209.51547941 17.8975393 207.42496447 21.25390625 205.33984375 C22.32535889 204.67364014 23.39681152 204.00743652 24.50073242 203.32104492 C26.54953599 202.04772234 28.59913945 200.77568561 30.6496582 199.50512695 C35.75721433 196.32337787 40.73310663 193.05658424 45.58203125 189.4921875 C42.52771219 186.20835983 38.97316072 184.49596803 34.95703125 182.6171875 C34.20719971 182.26640137 33.45736816 181.91561523 32.68481445 181.55419922 C17.47694863 174.65522995 2.27529046 171.4921875 -14.41796875 171.4921875 Z M55.14453125 203.1328125 C53.81578979 203.98830688 53.81578979 203.98830688 52.46020508 204.86108398 C51.51040771 205.48184814 50.56061035 206.1026123 49.58203125 206.7421875 C47.58617635 208.03031807 45.59007815 209.31807174 43.59375 210.60546875 C42.58747559 211.25725098 41.58120117 211.9090332 40.54443359 212.58056641 C36.18143991 215.39598099 31.78911445 218.16395012 27.39453125 220.9296875 C25.85276738 221.90349195 24.31109692 222.87744432 22.76953125 223.8515625 C20.16922569 225.49324092 17.5654289 227.12902608 14.95703125 228.7578125 C13.94640625 229.39203125 12.93578125 230.02625 11.89453125 230.6796875 C11.04503906 231.20949219 10.19554687 231.73929688 9.3203125 232.28515625 C8.74667969 232.68347656 8.17304688 233.08179688 7.58203125 233.4921875 C7.58203125 233.8221875 7.58203125 234.1521875 7.58203125 234.4921875 C33.65203125 234.4921875 59.72203125 234.4921875 86.58203125 234.4921875 C84.98553581 229.70270117 83.33316937 226.01654482 80.64453125 221.8671875 C80.25773193 221.26616211 79.87093262 220.66513672 79.47241211 220.04589844 C74.65688929 212.79451175 68.71973492 206.62989117 62.58203125 200.4921875 C59.06350491 200.4921875 58.05319508 201.24265862 55.14453125 203.1328125 Z M233.12109375 219.33984375 C226.24379728 228.95758576 225.43358747 240.03665793 226.58203125 251.4921875 C229.10921231 262.32824676 236.1195038 270.80458689 245.26953125 276.9296875 C255.50043486 282.48858405 266.43339185 283.72268104 277.58203125 280.4921875 C289.93720305 275.86088379 296.84235409 269.02905607 302.453125 257.2265625 C306.0290303 248.56520017 305.95203524 237.35292544 302.95703125 228.4921875 C298.59934157 218.31408712 291.10104502 210.40355057 281.14453125 205.5546875 C263.15176641 198.67644069 245.17702023 204.99934673 233.12109375 219.33984375 Z " fill="#000000" transform="translate(166.41796875,29.5078125)"/>
<path d="M0 0 C5.82485779 3.51996782 10.54466582 8.98962934 12.5625 15.5 C13.36748575 23.33457059 13.68829143 31.12123733 8.5625 37.5 C4.79441918 41.45339627 1.92912621 44.15834345 -3.4375 45.5 C-3.4375 53.75 -3.4375 62 -3.4375 70.5 C7.4525 70.5 18.3425 70.5 29.5625 70.5 C30.2225 68.52 30.8825 66.54 31.5625 64.5 C35.04383562 59.76942521 39.69679656 55.66070457 45.5625 54.5 C53.48633252 53.74354821 61.08581123 53.35930981 67.5625 58.5 C73.29331331 63.53476311 76.4432947 68.92474728 77.5625 76.5 C77.80153458 82.76686318 76.20341842 88.38190897 72.5625 93.5 C67.79887382 98.56259854 63.37301858 102.10847718 56.29296875 102.8359375 C47.74364273 102.93019688 41.86940155 102.60501554 35.5625 96.59375 C32.50855502 93.29351914 30.54146982 90.9148492 29.5625 86.5 C28.73017853 86.51332367 28.73017853 86.51332367 27.88104248 86.5269165 C22.10618389 86.61540593 16.33151784 86.67574053 10.55615234 86.71972656 C8.40079933 86.73984276 6.24550089 86.76713925 4.09033203 86.80175781 C0.99237605 86.85027486 -2.10485846 86.87296873 -5.203125 86.890625 C-6.16679993 86.91127014 -7.13047485 86.93191528 -8.12335205 86.95318604 C-14.64044975 86.95537225 -14.64044975 86.95537225 -18.05273438 85.00585938 C-20.04764172 81.39589305 -19.9331412 78.02744869 -19.828125 74.015625 C-19.82246521 73.20003113 -19.81680542 72.38443726 -19.81097412 71.54412842 C-19.78862727 68.94548228 -19.73843622 66.34822758 -19.6875 63.75 C-19.66743271 61.98569703 -19.64918234 60.2213724 -19.6328125 58.45703125 C-19.5887683 54.13748672 -19.51975422 49.81897907 -19.4375 45.5 C-20.21851074 45.20053467 -20.99952148 44.90106934 -21.80419922 44.5925293 C-27.22337549 42.34416903 -31.26143807 38.30084484 -34.4375 33.4375 C-36.77068561 26.69718602 -36.81506782 17.61056544 -33.9375 11.0625 C-26.91173661 -0.56376327 -12.74096817 -5.64599766 0 0 Z M-16.8125 17.125 C-18.92456506 20.21186432 -19.04945145 21.8282913 -18.4375 25.5 C-16.9375 28 -16.9375 28 -14.4375 29.5 C-10.7657913 30.11195145 -9.14936432 29.98706506 -6.0625 27.875 C-3.95043494 24.78813568 -3.82554855 23.1717087 -4.4375 19.5 C-5.9375 17 -5.9375 17 -8.4375 15.5 C-12.1092087 14.88804855 -13.72563568 15.01293494 -16.8125 17.125 Z M47.1875 73.125 C45.07543494 76.21186432 44.95054855 77.8282913 45.5625 81.5 C47.0625 84 47.0625 84 49.5625 85.5 C53.2342087 86.11195145 54.85063568 85.98706506 57.9375 83.875 C60.04956506 80.78813568 60.17445145 79.1717087 59.5625 75.5 C58.0625 73 58.0625 73 55.5625 71.5 C51.8907913 70.88804855 50.27436432 71.01293494 47.1875 73.125 Z " fill="#000000" transform="translate(107.4375,241.5)"/>
<path d="M0 0 C12.12803309 -0.79528086 21.72556151 3.92054114 30.90234375 11.58984375 C41.11680078 21.08906528 47.79154201 35.68274761 48.3359375 49.57421875 C48.650427 70.82990731 48.650427 70.82990731 44 81 C43.57589844 81.94617188 43.15179688 82.89234375 42.71484375 83.8671875 C36.08152754 97.20772873 25.79360282 106.52020186 11.73046875 111.3203125 C7.69157365 112.3257027 4.14269064 112.27165185 0 112 C0 106.39 0 100.78 0 95 C1.44375 94.814375 2.8875 94.62875 4.375 94.4375 C12.36828399 92.80714179 18.60495716 88.40426775 23.375 81.8125 C30.4006778 69.91675008 31.97665565 56.96101188 29.3046875 43.49609375 C26.27233034 33.51989353 21.44203856 26.12778975 12.6796875 20.375 C8.50894068 18.23490834 4.63411177 17.59581437 0 17 C0 11.39 0 5.78 0 0 Z " fill="#000000" transform="translate(320,384)"/>
<path d="M0 0 C5.28 0 10.56 0 16 0 C16 10.56 16 21.12 16 32 C26.56 32 37.12 32 48 32 C48 37.28 48 42.56 48 48 C37.44 48 26.88 48 16 48 C16 58.56 16 69.12 16 80 C10.72 80 5.44 80 0 80 C0 69.44 0 58.88 0 48 C-10.56 48 -21.12 48 -32 48 C-32 42.72 -32 37.44 -32 32 C-21.44 32 -10.88 32 0 32 C0 21.44 0 10.88 0 0 Z " fill="#000000" transform="translate(416,56)"/>
<path d="M0 0 C9.52216077 0 16.42838175 1.72143673 23.46875 8.296875 C30.86241291 16.52043885 32.58190067 25.23445635 32.3125 36.01171875 C31.83817365 44.39741331 28.22530477 51.402937 22 57 C14.74010158 62.45944362 9.25683308 64 0 64 C0 58.39 0 52.78 0 47 C2.10375 46.4121875 2.10375 46.4121875 4.25 45.8125 C8.50546012 44.40739524 10.59866882 42.90216317 13 39 C14.85618207 35.28763586 14.44809981 31.05156912 14 27 C11.8065619 22.53188534 9.51294863 20.09136644 5 18 C3.35 17.67 1.7 17.34 0 17 C0 11.39 0 5.78 0 0 Z " fill="#000000" transform="translate(304,408)"/>
<path d="M0 0 C5.28 0 10.56 0 16 0 C16 5.28 16 10.56 16 16 C21.28 16 26.56 16 32 16 C32 21.28 32 26.56 32 32 C26.72 32 21.44 32 16 32 C16 37.28 16 42.56 16 48 C10.72 48 5.44 48 0 48 C0 42.72 0 37.44 0 32 C-5.28 32 -10.56 32 -16 32 C-16 26.72 -16 21.44 -16 16 C-10.72 16 -5.44 16 0 16 C0 10.72 0 5.44 0 0 Z " fill="#000000" transform="translate(424,248)"/>
<path d="M0 0 C7.60020443 0 11.49780863 0.71068693 16.9921875 5.87109375 C23.32168411 12.81778194 24.48068378 18.18777415 24.3046875 27.5546875 C23.69427648 34.45702746 21.07439822 38.24207329 16.0625 42.875 C10.37363649 47.48276952 7.6231861 48 0 48 C0 42.39 0 36.78 0 31 C1.65 30.34 3.3 29.68 5 29 C6.39935013 26.20129973 6.25265405 24.09501208 6 21 C4.14657225 18.44050454 3.06243607 18.02081202 0 17 C0 11.39 0 5.78 0 0 Z " fill="#000000" transform="translate(272,416)"/>
<path d="M0 0 C5.28 0 10.56 0 16 0 C16 5.28 16 10.56 16 16 C10.72 16 5.44 16 0 16 C0 10.72 0 5.44 0 0 Z " fill="#000000" transform="translate(136,56)"/>
</svg>
